<svg xmlns="http://www.w3.org/2000/svg" xmlns:xlink="http://www.w3.org/1999/xlink" viewBox="0 0 1000 334.6"><style>.st0{fill:#f2f2f2}.st1{fill:none;stroke:#8077b7;stroke-width:3}.st1,.st2,.st3{stroke-miterlimit:10}.st2{fill:#8077b7;stroke:#fff;stroke-width:3.5319}.st3{fill:none;stroke:#84cba8;stroke-width:3}.st4{fill:#7d7e7e}.st5{font-family:&apos;OpenSans&apos;}.st6{font-size:16px}.st7{fill:#fff}.st8{font-family:&apos;OpenSans-Bold&apos;}.st9{font-size:21.1914px}.st10{font-family:&apos;OpenSans-Semibold&apos;}.st11{font-size:20px}.st12,.st13,.st14{fill:#fff;stroke:#595a5c;stroke-width:3.5319;stroke-miterlimit:10}.st13,.st14{fill:none;stroke-width:1.1773}.st14{stroke-width:3.5319}.st15{fill:#595a5c}.st16{clip-path:url(#SVGID_2_);fill:none;stroke:#595a5c;stroke-width:1.1773;stroke-miterlimit:10}.st17,.st18{clip-path:url(#SVGID_4_);fill:#fff}.st18{fill:#595a5c}.st19{fill:none;stroke:#595a5c;stroke-width:1.1773}.st20{fill:#8077b7}.st21{stroke:#fff;stroke-width:3.5319;stroke-miterlimit:10}.st21,.st22{fill:#84cba8}.st23{fill:url(#SVGID_5_)}.st24{font-size:17.0007px}</style><path class="st0" d="M994 330.3H758.7c-.9 0-1.7-.7-1.7-1.7V5.5c0-.9.7-1.7 1.7-1.7H994c.9 0 1.7.7 1.7 1.7v323.2c-.1.9-.8 1.6-1.7 1.6z"/><path class="st1" d="M151.2 70.1h256.7"/><circle class="st2" cx="139.8" cy="69.8" r="16"/><path class="st3" d="M525.2 188.2v45.5h253.7"/><text transform="translate(846.001 128.346)" class="st4 st5 st6">Key server</text><text transform="translate(27.022 159.957)" class="st4 st5 st6">Client</text><text transform="translate(133.927 77.331)" class="st7 st8 st9">1</text><text transform="translate(839.429 293.954)" class="st4 st5 st6">Origin server</text><text transform="translate(486.735 117.788)"><tspan x="0" y="0" class="st7 st10 st11">Session</tspan><tspan x="5.7" y="20" class="st7 st10 st11">server</tspan></text><text transform="translate(219.6 52.149)" class="st4 st10 st6">Anycast routing</text><path class="st12" d="M935.2 90H815.9c-.9 0-1.7-.8-1.7-1.7V50.9c0-.9.8-1.7 1.7-1.7h119.2c.9 0 1.7.8 1.7 1.7v37.4c0 1-.7 1.7-1.6 1.7z"/><path class="st13" d="M866.8 62.6v14.1m8.8-14.1v14.1m8.8-14.1v14.1m8.8-14.1v14.1m-61.6-14.1v14.1m8.8-14.1v14.1m8.8-14.1v14.1m8.8-14.1v14.1m44.1-14.1v14.1m8.8-14.1v14.1m8.8-14.1v14.1"/><path class="st14" d="M831.3 97.3h88.3"/><circle class="st7" cx="932.4" cy="81.9" r="24.6"/><circle class="st15" cx="932.4" cy="81.9" r="21.1"/><circle class="st7" cx="923" cy="81.9" r="7.4"/><circle class="st15" cx="919.5" cy="81.9" r="1.9"/><path class="st7" d="M929.4 78.3h16.8l3.1 2.9v1.2l-2.6 2.6h-1l-1.1-1h-1.3l-.7 1.1h-.8l-.8-.7h-1.1l-.8.8h-.6l-.9-.8H936l-1.5 1.7h-.8l-.6-.5h-3.8s.2-7.2.1-7.3z"/><defs><path id="SVGID_1_" d="M929.4 78.3h16.8l3.1 2.9v1.2l-2.6 2.6h-1l-1.1-1h-1.3l-.7 1.1h-.8l-.8-.7h-1.1l-.8.8h-.6l-.9-.8H936l-1.5 1.7h-.8l-.6-.5h-3.8s.2-7.2.1-7.3z"/></defs><clipPath id="SVGID_2_"><use xlink:href="#SVGID_1_" overflow="visible"/></clipPath><path class="st16" d="M930.8 80.1h18.1"/><path class="st12" d="M935.2 254.3H815.9c-.9 0-1.7-.8-1.7-1.7v-37.4c0-.9.8-1.7 1.7-1.7h119.2c.9 0 1.7.8 1.7 1.7v37.4c0 1-.7 1.7-1.6 1.7z"/><path class="st13" d="M866.8 226.9V241m8.8-14.1V241m8.8-14.1V241m8.8-14.1V241m-61.6-14.1V241m8.8-14.1V241m8.8-14.1V241m8.8-14.1V241m44.1-14.1V241m8.8-14.1V241m8.8-14.1V241"/><path class="st14" d="M831.3 261.6h88.3"/><circle class="st7" cx="932.4" cy="246.2" r="24.6"/><circle class="st15" cx="932.4" cy="246.2" r="21.1"/><defs><path id="SVGID_3_" d="M923 233.9h19.5v26.4H923z"/></defs><clipPath id="SVGID_4_"><use xlink:href="#SVGID_3_" overflow="visible"/></clipPath><path class="st17" d="M932.8 233.9c-5.4 0-9.7 4.4-9.7 9.7 0 5.4 3.8 9.9 9.7 16.6 8.7-10.6 9.7-11.3 9.7-16.6 0-5.3-4.3-9.7-9.7-9.7"/><path class="st18" d="M936.6 241.7c0 2.1-1.7 3.8-3.8 3.8-2.1 0-3.8-1.7-3.8-3.8s1.7-3.8 3.8-3.8c2.1 0 3.8 1.7 3.8 3.8"/><path class="st12" d="M89.8 127.3H7.4c-.9 0-1.7-.8-1.7-1.7V60c0-.9.8-1.7 1.7-1.7h82.4c.9 0 1.7.8 1.7 1.7v65.5c0 1-.8 1.8-1.7 1.8z"/><path class="st15" d="M6.2 58.9h85.2v17.4H6.2z"/><circle class="st7" cx="17.7" cy="67.6" r="2.9"/><circle class="st7" cx="26.1" cy="67.6" r="2.9"/><circle class="st7" cx="34.4" cy="67.6" r="2.9"/><path class="st19" d="M21.5 107.9h22.3M21.5 88H58M21.5 98H58"/><path class="st20" d="M402 70.2l-.1-10.4 9 5.1 9 5.1-8.9 5.3-8.9 5.2z"/><path class="st3" d="M151.2 115.9h256.7"/><circle class="st21" cx="139.8" cy="115.5" r="16"/><text transform="translate(133.927 123.072)" class="st7 st8 st9">2</text><text transform="translate(178.768 149.692)" class="st4 st10 st6">makes request over HTTPS</text><path class="st22" d="M402 115.9l-.1-10.4 9 5.1 9 5.1-8.9 5.3-8.9 5.3z"/><path class="st1" d="M633.6 70.3h147.3"/><path class="st20" d="M779.3 70.3l-.1-10.3 9 5.1 9 5.1-8.9 5.2-8.9 5.3zM641 70.2l.1 10.3-9-5.1-9-5.1 8.9-5.2 8.9-5.3z"/><path class="st22" d="M779.3 233.3l-.1-10.3 9 5.1 9 5.1-8.9 5.2-8.9 5.3z"/><text transform="translate(679.206 161.311)" class="st4 st10 st6">Firewall</text><path class="st7" d="M550.8 89.8c7.4 0 13.3-6 13.3-13.3 0-7.4-6-13.3-13.3-13.3v-.7c0-12.6-10.2-22.9-22.9-22.9-10.3 0-19.1 6.9-21.9 16.3-1.7-.8-3.6-1.3-5.7-1.3-7.4 0-13.4 6-13.4 13.3 0 1.7.3 3.3.9 4.8h-.4c-4.7 0-8.6 3.8-8.6 8.6 0 4.7 3.8 8.6 8.6 8.6h63.4z"/><linearGradient id="SVGID_5_" gradientUnits="userSpaceOnUse" x1="461.658" y1="143.851" x2="585.839" y2="39.651"><stop offset="0" stop-color="#F3797A"/><stop offset="1" stop-color="#F89522"/></linearGradient><circle class="st23" cx="523.7" cy="91.8" r="81.1"/><text transform="translate(468.295 129.786)" class="st7 st10 st24">Session server</text><path class="st7" d="M558.4 103.7c8.5 0 15.3-6.9 15.3-15.3 0-8.5-6.9-15.3-15.3-15.3v-.8c0-14.5-11.8-26.3-26.3-26.3-11.9 0-21.9 7.9-25.2 18.7-2-.9-4.2-1.5-6.5-1.5-8.5 0-15.3 6.9-15.3 15.3 0 1.9.4 3.8 1 5.5h-.5c-5.4 0-9.8 4.4-9.8 9.8s4.4 9.8 9.8 9.8h72.8z"/></svg>